# xmcd CD database file
#
# Track frame offsets:
#	150
#	11764
#	26042
#	41675
#	57388
#	77029
#	94385
#	106252
#	117214
#	131436
#	144129
#	161416
#	175875
#
# Disc length: 2530 seconds
#
# Revision: 1
# Processed by: cddbd v1.5.1PL2 Copyright (c) Steve Scherf et al.
# Submitted via: CDex 1.51
#
DISCID=a509e00d
DTITLE=Sons Of The One - SOTO (Sons Of The One)
DYEAR=2005
DGENRE=Country
TTITLE0=What A Happy Morning
TTITLE1=Miracles
TTITLE2=Driving Nails
TTITLE3=It's All In The Hands Of The Lord
TTITLE4=100 White Horses
TTITLE5=When Mama Prayed
TTITLE6=I Saw A Man
TTITLE7=My Forever Love
TTITLE8=The Soldier
TTITLE9=Far Side Banks Of Jordan
TTITLE10=I Want To Go Home
TTITLE11=Truck Driver's Prayer
TTITLE12=There Is A Reason
EXTD=YEAR: 2005
EXTT0=
EXTT1=
EXTT2=
EXTT3=
EXTT4=
EXTT5=
EXTT6=
EXTT7=
EXTT8=
EXTT9=
EXTT10=
EXTT11=
EXTT12=
PLAYORDER=
